<?xml version="1.0" standalone="no"?>
<!DOCTYPE svg PUBLIC "-//W3C//DTD SVG 20010904//EN"
 "http://www.w3.org/TR/2001/REC-SVG-20010904/DTD/svg10.dtd">
<svg version="1.0" xmlns="http://www.w3.org/2000/svg"
 width="928.000000pt" height="928.000000pt" viewBox="0 0 928.000000 928.000000"
 preserveAspectRatio="xMidYMid meet">
<metadata>
Created by potrace 1.11, written by Peter Selinger 2001-2013
</metadata>
<g transform="translate(0.000000,928.000000) scale(0.100000,-0.100000)"
fill="#000000" stroke="none">
<path d="M3151 8658 c-5 -13 -20 -51 -34 -85 -14 -34 -22 -64 -19 -67 3 -3 0
-6 -6 -6 -7 0 -11 -3 -10 -7 2 -7 -92 -253 -130 -343 -9 -19 -17 -39 -18 -45
-1 -5 -18 -49 -37 -97 -19 -49 -33 -88 -29 -88 3 0 -3 -9 -13 -20 -10 -11 -15
-20 -11 -20 3 0 0 -13 -9 -30 -8 -16 -15 -31 -14 -32 1 -3 9 18 -121 -313 -56
-143 -115 -296 -132 -340 -16 -44 -36 -93 -43 -110 -22 -51 -33 -78 -51 -130
-10 -27 -20 -52 -23 -55 -4 -3 -7 -9 -8 -15 -6 -30 -51 -145 -62 -159 -8 -9
-11 -16 -8 -16 3 0 -8 -33 -24 -72 -17 -40 -31 -81 -32 -90 -1 -10 -4 -18 -8
-18 -4 0 -10 -12 -13 -27 -4 -16 -13 -41 -21 -58 -8 -16 -30 -73 -50 -125 -20
-52 -42 -108 -50 -125 -7 -16 -15 -39 -17 -50 -1 -11 -5 -22 -8 -25 -3 -3 -23
-50 -44 -105 -21 -55 -42 -109 -46 -120 -23 -53 -160 -404 -160 -410 0 -3 -9
-24 -19 -48 -10 -23 -42 -103 -71 -177 -28 -74 -57 -148 -64 -165 -7 -16 -19
-46 -26 -65 -7 -19 -21 -54 -31 -77 -11 -24 -19 -46 -19 -50 0 -9 -93 -248
-116 -298 -7 -16 -25 -61 -39 -100 -14 -38 -30 -79 -35 -90 -23 -51 -38 -95
-33 -95 3 0 -1 -10 -9 -23 -12 -18 -50 -110 -53 -127 -1 -3 -9 -22 -18 -44 -9
-21 -17 -44 -17 -50 0 -7 -4 -16 -8 -21 -5 -6 -21 -44 -37 -85 -15 -41 -61
-160 -102 -265 -41 -104 -79 -203 -85 -220 -6 -16 -14 -34 -18 -40 -4 -5 -13
-31 -21 -57 -7 -27 -17 -48 -21 -48 -4 0 -8 -6 -8 -13 0 -7 -56 -157 -126
-332 -69 -176 -143 -367 -165 -425 -22 -58 -44 -114 -49 -125 -5 -11 -18 -42
-28 -70 -10 -27 -23 -59 -27 -70 -5 -11 -9 -22 -10 -25 -1 -3 -8 -21 -16 -40
-7 -19 -12 -38 -11 -42 1 -5 -2 -8 -6 -8 -5 0 -9 -6 -9 -12 0 -7 -19 -58 -41
-113 -22 -55 -128 -327 -236 -605 -108 -278 -203 -516 -210 -530 -7 -14 -16
-38 -20 -54 -4 -15 -15 -47 -25 -70 -29 -66 -42 -99 -57 -138 l-13 -38 1480 0
1479 0 12 28 c6 15 12 32 13 37 2 8 103 264 130 330 4 11 9 25 10 31 2 6 10
27 18 45 9 19 48 117 87 219 39 102 77 199 85 217 8 17 15 34 15 38 0 4 6 21
14 38 29 67 76 193 76 205 0 6 5 12 12 12 6 0 9 3 6 6 -4 3 3 27 14 52 33 79
35 84 68 172 18 47 54 140 81 208 27 67 49 129 49 137 0 8 3 15 8 15 4 0 12
17 19 38 6 20 17 51 24 67 7 17 13 35 15 40 1 6 28 73 59 150 31 77 58 145 59
150 2 6 8 24 15 40 47 117 84 210 86 219 1 6 11 31 22 56 11 25 28 70 39 100
10 30 21 57 24 60 3 3 11 23 18 45 8 22 22 59 33 82 10 24 19 47 19 52 0 4 8
28 19 52 17 42 32 78 36 89 1 3 5 14 10 25 4 11 17 43 27 70 10 28 23 59 28
70 12 27 115 294 126 325 4 14 7 28 6 33 -1 4 3 7 8 7 5 0 9 3 8 8 -1 4 4 20
10 35 7 16 12 33 12 38 0 5 4 9 8 9 4 0 8 9 9 20 1 10 10 36 20 57 10 21 18
40 19 43 0 3 6 19 13 35 7 17 14 35 15 40 2 6 8 21 13 35 6 14 25 61 41 105
17 44 37 94 43 110 7 17 13 32 14 35 1 3 7 19 14 35 6 17 19 49 28 73 9 23 18
42 22 42 6 0 30 -58 86 -205 14 -38 30 -79 35 -90 4 -11 18 -47 31 -80 12 -33
27 -69 33 -80 5 -11 11 -24 12 -30 2 -10 68 -181 85 -220 4 -11 45 -114 90
-230 45 -115 86 -218 91 -228 5 -10 11 -26 13 -35 2 -9 24 -68 49 -131 25 -63
46 -120 46 -128 0 -7 5 -13 10 -13 6 0 10 -9 10 -19 0 -11 5 -23 10 -26 6 -3
10 -16 10 -29 0 -12 4 -26 9 -31 4 -6 27 -59 50 -120 23 -60 46 -119 51 -130
5 -11 32 -81 60 -155 57 -149 59 -155 89 -222 12 -26 21 -54 21 -61 0 -7 6
-21 14 -32 7 -11 16 -33 20 -49 4 -15 15 -47 25 -70 10 -22 42 -102 70 -176
29 -74 56 -144 61 -155 16 -36 94 -240 95 -247 0 -3 3 -10 8 -14 4 -4 7 -16 7
-26 0 -10 5 -18 10 -18 6 0 9 -3 8 -7 -3 -9 7 -36 128 -343 50 -129 116 -298
146 -375 30 -77 59 -149 63 -160 5 -11 9 -22 10 -25 9 -27 19 -49 30 -70 7
-14 13 -28 13 -33 1 -9 38 -109 57 -152 7 -16 15 -38 19 -47 5 -17 85 -18
1485 -18 l1481 0 -11 28 c-5 15 -26 68 -45 117 -34 87 -43 109 -63 158 -5 12
-33 83 -61 157 -28 74 -58 149 -66 167 -8 17 -14 33 -14 36 0 3 -5 18 -12 34
-6 15 -12 30 -13 33 -1 3 -5 14 -10 25 -5 11 -46 117 -92 235 -46 118 -87 224
-92 235 -5 11 -17 40 -26 65 -9 25 -22 56 -28 70 -6 14 -11 27 -11 30 -2 7
-50 132 -75 193 -5 12 -21 51 -35 87 -13 36 -30 79 -37 95 -7 17 -13 33 -14
38 -2 4 -4 9 -5 12 -1 3 -3 8 -5 13 -1 4 -7 21 -14 37 -33 83 -86 218 -151
385 -39 102 -75 194 -80 205 -5 11 -50 126 -100 255 -50 129 -98 249 -106 267
-8 17 -14 35 -14 41 0 5 -12 36 -26 68 -24 55 -34 80 -79 204 -9 25 -23 59
-30 75 -15 32 -165 413 -169 430 -2 6 -9 24 -16 40 -6 17 -22 57 -35 90 -30
80 -133 345 -144 370 -5 11 -20 49 -34 85 -131 334 -183 467 -236 601 -33 86
-61 159 -61 162 0 4 -11 31 -25 61 -14 30 -25 57 -25 60 0 5 -125 327 -140
361 -5 11 -32 81 -60 155 -29 74 -60 154 -71 177 -10 24 -19 49 -19 57 0 8 -4
18 -10 21 -5 3 -10 13 -10 20 0 8 -11 39 -25 69 -14 30 -25 60 -25 65 0 6 -4
19 -10 29 -9 17 -60 146 -175 447 -32 83 -63 164 -71 180 -7 17 -27 71 -45
120 -19 50 -36 92 -39 95 -3 3 -11 23 -18 45 -8 22 -22 59 -33 82 -10 24 -19
46 -19 51 0 4 -15 45 -34 90 -19 45 -32 82 -29 82 3 0 1 6 -4 13 -5 6 -20 39
-33 72 -12 33 -29 75 -37 94 -8 18 -16 39 -17 45 -1 6 -7 20 -13 31 -6 11 -11
22 -12 25 -1 10 -22 66 -85 225 l-62 160 -1482 3 -1482 2 -9 -22z"/>
</g>
</svg>
